<svg width="313" height="313" viewBox="0 0 313 313" fill="none" xmlns="http://www.w3.org/2000/svg">
<path d="M156.5 0C70.0729 0 0 70.0735 0 156.5C0 242.927 70.0729 313 156.5 313C242.927 313 313 242.927 313 156.5C313 70.0735 242.927 0 156.5 0ZM234.75 169.542H169.541V234.75C169.541 241.963 163.699 247.792 156.5 247.792C149.301 247.792 143.459 241.963 143.459 234.75V169.542H78.25C71.051 169.542 65.2083 163.712 65.2083 156.5C65.2083 149.288 71.051 143.458 78.25 143.458H143.459V78.2507C143.459 71.0379 149.301 65.2085 156.5 65.2085C163.699 65.2085 169.541 71.0379 169.541 78.2507V143.458H234.75C241.949 143.458 247.791 149.288 247.791 156.5C247.791 163.712 241.949 169.542 234.75 169.542Z" fill="#9ED099"/>
</svg>
