<svg width="21" height="22" viewBox="0 0 21 22" fill="none" xmlns="http://www.w3.org/2000/svg">
    <path
        d="M1.44048 19.9375C1.44048 20.4845 1.66812 21.0091 2.07333 21.3959C2.47855 21.7827 3.02813 22 3.60119 22H16.5655C17.1385 22 17.6881 21.7827 18.0933 21.3959C18.4985 21.0091 18.7262 20.4845 18.7262 19.9375V5.50001H1.44048V19.9375ZM13.6845 8.9375C13.6845 8.75517 13.7604 8.5803 13.8955 8.45137C14.0305 8.32244 14.2137 8.25 14.4048 8.25C14.5958 8.25 14.779 8.32244 14.914 8.45137C15.0491 8.5803 15.125 8.75517 15.125 8.9375V18.5625C15.125 18.7448 15.0491 18.9197 14.914 19.0486C14.779 19.1776 14.5958 19.25 14.4048 19.25C14.2137 19.25 14.0305 19.1776 13.8955 19.0486C13.7604 18.9197 13.6845 18.7448 13.6845 18.5625V8.9375ZM9.36309 8.9375C9.36309 8.75517 9.43897 8.5803 9.57404 8.45137C9.70912 8.32244 9.89231 8.25 10.0833 8.25C10.2743 8.25 10.4575 8.32244 10.5926 8.45137C10.7277 8.5803 10.8036 8.75517 10.8036 8.9375V18.5625C10.8036 18.7448 10.7277 18.9197 10.5926 19.0486C10.4575 19.1776 10.2743 19.25 10.0833 19.25C9.89231 19.25 9.70912 19.1776 9.57404 19.0486C9.43897 18.9197 9.36309 18.7448 9.36309 18.5625V8.9375ZM5.04166 8.9375C5.04166 8.75517 5.11755 8.5803 5.25262 8.45137C5.38769 8.32244 5.57088 8.25 5.7619 8.25C5.95292 8.25 6.13612 8.32244 6.27119 8.45137C6.40626 8.5803 6.48214 8.75517 6.48214 8.9375V18.5625C6.48214 18.7448 6.40626 18.9197 6.27119 19.0486C6.13612 19.1776 5.95292 19.25 5.7619 19.25C5.57088 19.25 5.38769 19.1776 5.25262 19.0486C5.11755 18.9197 5.04166 18.7448 5.04166 18.5625V8.9375ZM19.4464 1.37501H14.0446L13.6215 0.571492C13.5319 0.399709 13.3938 0.255209 13.2228 0.154247C13.0518 0.0532863 12.8547 -0.000130108 12.6537 7.53359e-06H7.50848C7.30788 -0.000728544 7.11113 0.0524887 6.94075 0.153562C6.77038 0.254636 6.63328 0.399477 6.54516 0.571492L6.12202 1.37501H0.720238C0.529219 1.37501 0.346024 1.44744 0.210953 1.57637C0.075882 1.7053 0 1.88017 0 2.06251L0 3.43751C0 3.61984 0.075882 3.79471 0.210953 3.92364C0.346024 4.05257 0.529219 4.12501 0.720238 4.12501H19.4464C19.6374 4.12501 19.8206 4.05257 19.9557 3.92364C20.0908 3.79471 20.1667 3.61984 20.1667 3.43751V2.06251C20.1667 1.88017 20.0908 1.7053 19.9557 1.57637C19.8206 1.44744 19.6374 1.37501 19.4464 1.37501Z"
        fill="#9ED099" />
</svg>